<?xml version="1.0" encoding="UTF-8"?>
<svg version="1.1" xmlns="http://www.w3.org/2000/svg" width="375" height="375">
<path d="M0 0 C123.75 0 247.5 0 375 0 C375 123.75 375 247.5 375 375 C251.25 375 127.5 375 0 375 C0 251.25 0 127.5 0 0 Z " fill="#FEFEFE" transform="translate(0,0)"/>
<path d="M0 0 C5.33119737 3.09229527 9.77619484 7.12155327 11.76171875 13.078125 C11.89151314 16.08416296 11.80535048 19.06753531 11.76171875 22.078125 C16.05171875 22.078125 20.34171875 22.078125 24.76171875 22.078125 C26.1752368 33.74750176 24.1787396 40.88839483 17.63671875 50.59375 C15.50926137 53.75089675 13.89067927 56.87841838 12.38671875 60.375 C7.68965067 70.81186615 7.68965067 70.81186615 3.76171875 74.078125 C-3.02655654 76.28516333 -10.32235556 75.26753709 -17.23828125 74.078125 C-17.66125488 73.34287598 -18.08422852 72.60762695 -18.52001953 71.85009766 C-20.11841071 69.07265844 -21.71763218 66.29569935 -23.31738281 63.51904297 C-24.00422945 62.32652073 -24.6907629 61.13381803 -25.37695312 59.94091797 C-26.37413618 58.20751059 -27.37261195 56.47484709 -28.37109375 54.7421875 C-29.3448999 53.0418335 -29.3448999 53.0418335 -30.33837891 51.30712891 C-31.53279675 49.27714042 -32.76705162 47.26955941 -34.05615234 45.29833984 C-37.63016238 39.81523129 -39.09772791 35.99936575 -38.61328125 29.453125 C-38.58621094 28.73511719 -38.55914062 28.01710937 -38.53125 27.27734375 C-38.46187259 25.54290861 -38.35431689 23.81006444 -38.23828125 22.078125 C-33.94828125 22.078125 -29.65828125 22.078125 -25.23828125 22.078125 C-25.34140625 20.593125 -25.44453125 19.108125 -25.55078125 17.578125 C-25.52653842 11.86489779 -24.07791543 8.2914462 -20.23828125 4.078125 C-14.42780277 -1.21701171 -7.45024304 -3.06851197 0 0 Z " fill="#F9FAFB" transform="translate(194.23828125,114.921875)"/>
<path d="M0 0 C5.33119737 3.09229527 9.77619484 7.12155327 11.76171875 13.078125 C11.89151314 16.08416296 11.80535048 19.06753531 11.76171875 22.078125 C16.05171875 22.078125 20.34171875 22.078125 24.76171875 22.078125 C26.1752368 33.74750176 24.1787396 40.88839483 17.63671875 50.59375 C15.50926137 53.75089675 13.89067927 56.87841838 12.38671875 60.375 C7.68965067 70.81186615 7.68965067 70.81186615 3.76171875 74.078125 C-3.02655654 76.28516333 -10.32235556 75.26753709 -17.23828125 74.078125 C-17.66125488 73.34287598 -18.08422852 72.60762695 -18.52001953 71.85009766 C-20.11841071 69.07265844 -21.71763218 66.29569935 -23.31738281 63.51904297 C-24.00422945 62.32652073 -24.6907629 61.13381803 -25.37695312 59.94091797 C-26.37413618 58.20751059 -27.37261195 56.47484709 -28.37109375 54.7421875 C-29.3448999 53.0418335 -29.3448999 53.0418335 -30.33837891 51.30712891 C-31.53279675 49.27714042 -32.76705162 47.26955941 -34.05615234 45.29833984 C-37.63016238 39.81523129 -39.09772791 35.99936575 -38.61328125 29.453125 C-38.58621094 28.73511719 -38.55914062 28.01710937 -38.53125 27.27734375 C-38.46187259 25.54290861 -38.35431689 23.81006444 -38.23828125 22.078125 C-33.94828125 22.078125 -29.65828125 22.078125 -25.23828125 22.078125 C-25.34140625 20.593125 -25.44453125 19.108125 -25.55078125 17.578125 C-25.52653842 11.86489779 -24.07791543 8.2914462 -20.23828125 4.078125 C-14.42780277 -1.21701171 -7.45024304 -3.06851197 0 0 Z M-33.23828125 27.078125 C-33.58335325 36.20962027 -33.58335325 36.20962027 -30.31640625 43.27734375 C-29.7028125 44.34146484 -29.08921875 45.40558594 -28.45703125 46.50195312 C-27.80734375 47.57896484 -27.15765625 48.65597656 -26.48828125 49.765625 C-25.53695312 51.39854492 -25.53695312 51.39854492 -24.56640625 53.06445312 C-23.34686451 55.15418871 -22.11878394 57.23897243 -20.88085938 59.31787109 C-18.95828056 62.54864935 -17.09136886 65.80714459 -15.23828125 69.078125 C-9.91405621 69.83411326 -4.49533187 70.55004516 0.76171875 69.078125 C4.1864627 65.97462094 5.81962985 62.38339382 7.71337891 58.20996094 C8.8930063 55.81114715 10.25266064 53.59604196 11.6796875 51.3359375 C12.44381958 50.10870972 12.44381958 50.10870972 13.22338867 48.85668945 C14.22554283 47.25015729 15.23699958 45.64937909 16.2590332 44.05541992 C16.71366943 43.29592041 17.16830566 42.5364209 17.63671875 41.75390625 C18.04664063 41.09302002 18.4565625 40.43213379 18.87890625 39.7512207 C20.28438338 35.964716 20.28438338 35.964716 19.76171875 27.078125 C2.27171875 27.078125 -15.21828125 27.078125 -33.23828125 27.078125 Z " fill="#11445F" transform="translate(194.23828125,114.921875)"/>
<path d="M0 0 C18.15 0 36.3 0 55 0 C59.95 8.91 59.95 8.91 65 18 C67.29810831 21.98912277 69.60351733 25.96979906 71.9375 29.9375 C73.12657327 31.96728908 74.31537127 33.99723943 75.50390625 36.02734375 C76.08543457 37.01976074 76.66696289 38.01217773 77.26611328 39.03466797 C79.98325153 43.68157887 82.6803155 48.3400427 85.375 53 C86.08064087 54.21997681 86.08064087 54.21997681 86.80053711 55.46459961 C87.86737521 57.30953046 88.93374762 59.15473058 90 61 C92.6908148 57.76733025 94.93884808 54.57222803 96.9609375 50.88671875 C97.50830566 49.89720215 98.05567383 48.90768555 98.61962891 47.88818359 C99.19890137 46.83195801 99.77817383 45.77573242 100.375 44.6875 C106.90819435 32.89024897 113.64379681 21.22317248 120.48291016 9.60107422 C122.3425695 6.41265924 124.16869459 3.20478446 126 0 C143.82 0 161.64 0 180 0 C180 1.32 180 2.64 180 4 C179.40468475 3.9592334 178.80936951 3.9184668 178.1960144 3.87646484 C151.42133842 0.65757657 151.42133842 0.65757657 126.49951172 6.98388672 C121.46763505 12.2298858 119.36382213 18.66817022 117.23486328 25.50390625 C115.07907488 31.60728503 111.60264467 36.92952572 108.25 42.4375 C106.99834157 44.59704473 105.7520959 46.75973721 104.51171875 48.92578125 C100.05609935 56.64569745 95.5402621 64.32962779 91 72 C88.0076393 69.38282825 86.35756526 66.33031578 84.4375 62.875 C83.71851839 61.59314899 82.99841964 60.31192409 82.27734375 59.03125 C81.71442627 58.02964844 81.71442627 58.02964844 81.14013672 57.0078125 C79.30251885 53.77171628 77.39855279 50.57558619 75.5 47.375 C71.14390487 39.99826782 66.85523433 32.5828734 62.59204102 25.15216064 C61.86840451 23.89170168 61.14364564 22.63188635 60.41772461 21.3727417 C59.38979339 19.58889169 58.36623549 17.80260071 57.34375 16.015625 C56.74755859 14.97696289 56.15136719 13.93830078 55.53710938 12.86816406 C54 10 54 10 52 5 C34.84 5 17.68 5 0 5 C0 3.35 0 1.7 0 0 Z " fill="#0C547B" transform="translate(97,152)"/>
<path d="M0 0 C8.58 0 17.16 0 26 0 C26 1.65 26 3.3 26 5 C24.96613159 4.86476929 24.96613159 4.86476929 23.91137695 4.72680664 C16.24077086 3.89587236 8.322192 3.19051184 1 6 C-4.91579609 11.49816849 -8.03161961 19.17153745 -10.97631836 26.56396484 C-12 29 -12 29 -14 32 C-13.07102905 31.88217163 -13.07102905 31.88217163 -12.12329102 31.76196289 C5.11148474 29.8584109 5.11148474 29.8584109 9.87695312 33.39160156 C12.82274635 36.91374564 14.62788455 40.92698664 16.26318359 45.18896484 C17.25110482 47.61719534 18.64552365 49.76163576 20 52 C20 52.66 20 53.32 20 54 C18.265625 53.93359375 18.265625 53.93359375 16 53 C14.40234664 50.69389816 13.06469411 48.51903029 11.75 46.0625 C11.38648438 45.41603516 11.02296875 44.76957031 10.6484375 44.10351562 C8 39.30944549 8 39.30944549 8 37 C-1.24 37 -10.48 37 -20 37 C-17.75108878 30.25326633 -17.75108878 30.25326633 -15.8984375 27.1875 C-15.49415527 26.51066162 -15.08987305 25.83382324 -14.67333984 25.13647461 C-14.2448877 24.43143799 -13.81643555 23.72640137 -13.375 23 C-12.4783907 21.50176618 -11.5825702 20.00306006 -10.6875 18.50390625 C-10.23890625 17.75512207 -9.7903125 17.00633789 -9.328125 16.23486328 C-6.13946717 10.8692431 -3.08424445 5.4259856 0 0 Z " fill="#188DCD" transform="translate(234,170)"/>
<path d="M0 0 C4.04042673 -0.26233625 8.07866481 -0.42150491 12.125 -0.5625 C13.26710937 -0.63791016 14.40921875 -0.71332031 15.5859375 -0.79101562 C23.80691683 -1.00609939 23.80691683 -1.00609939 26.88647461 1.59082031 C28.51559187 3.97638149 29.74782221 6.39660854 31 9 C32.19612879 11.08551058 33.40104952 13.16599563 34.61328125 15.2421875 C35.85016208 17.45099696 37.08318346 19.66197169 38.3125 21.875 C39.26092773 23.56496094 39.26092773 23.56496094 40.22851562 25.2890625 C44.86745092 33.60235276 44.86745092 33.60235276 46 37 C36.76 37 27.52 37 18 37 C17.01 39.475 17.01 39.475 16 42 C14.89345877 44.12509244 13.74545328 46.22897584 12.5625 48.3125 C11.66724609 49.91544922 11.66724609 49.91544922 10.75390625 51.55078125 C9.88572266 52.76314453 9.88572266 52.76314453 9 54 C8.01 54 7.02 54 6 54 C7.46493494 48.85271493 9.7768496 44.69822932 12.5625 40.1875 C12.97435547 39.50751953 13.38621094 38.82753906 13.81054688 38.12695312 C16.83047672 33.16952328 16.83047672 33.16952328 18 32 C19.55948542 31.84313751 21.12542668 31.74923361 22.69140625 31.68359375 C23.63564453 31.64169922 24.57988281 31.59980469 25.55273438 31.55664062 C27.04256836 31.49766602 27.04256836 31.49766602 28.5625 31.4375 C29.55958984 31.39431641 30.55667969 31.35113281 31.58398438 31.30664062 C34.0558415 31.20019702 36.5278031 31.09818072 39 31 C38.57589844 30.28344238 38.15179688 29.56688477 37.71484375 28.82861328 C35.80539326 25.59671096 33.90262197 22.36092656 32 19.125 C31.33226562 17.99707031 30.66453125 16.86914062 29.9765625 15.70703125 C29.34492188 14.63066406 28.71328125 13.55429688 28.0625 12.4453125 C27.47597656 11.45031738 26.88945312 10.45532227 26.28515625 9.43017578 C25 7 25 7 25 5 C16.75 5 8.5 5 0 5 C0 3.35 0 1.7 0 0 Z " fill="#178DCD" transform="translate(115,170)"/>
<path d="M0 0 C3.28763709 2.38514848 4.76334986 3.54269082 6.1875 7.3125 C6.1875 10.2825 6.1875 13.2525 6.1875 16.3125 C-2.7225 16.3125 -11.6325 16.3125 -20.8125 16.3125 C-20.8125 6.3125 -20.8125 6.3125 -18.5625 2.8125 C-12.99069579 -2.25277655 -6.8928099 -3.60704247 0 0 Z " fill="#FAFBFB" transform="translate(194.8125,120.6875)"/>
<path d="M0 0 C1.88580223 0.07532841 3.77189354 0.14375467 5.65820312 0.20507812 C10.25849178 0.36959996 14.84479941 0.62771909 19.4375 0.9375 C19.4375 2.5875 19.4375 4.2375 19.4375 5.9375 C18.32938965 5.84210938 17.2212793 5.74671875 16.07958984 5.6484375 C-4.0988991 3.36548819 -4.0988991 3.36548819 -22.65478516 9.11474609 C-27.39217896 14.67887906 -30.0029889 21.12661966 -32.43359375 27.95703125 C-33.9729076 32.02103286 -36.14413732 35.49514711 -38.5 39.125 C-40.9690814 43.00705954 -40.9690814 43.00705954 -41.4765625 47.4140625 C-40.32972266 50.58012462 -38.76331499 53.25738673 -37 56.125 C-33.5625 61.73428068 -33.5625 61.73428068 -33.5625 63.9375 C-35.92371184 63.55772467 -37.2239734 63.31020446 -38.85864258 61.51049805 C-39.22111084 60.91277588 -39.5835791 60.31505371 -39.95703125 59.69921875 C-40.55354492 58.71598633 -40.55354492 58.71598633 -41.16210938 57.71289062 C-41.56236328 57.02388672 -41.96261719 56.33488281 -42.375 55.625 C-42.79458984 54.94759766 -43.21417969 54.27019531 -43.64648438 53.57226562 C-44.23333008 52.58323242 -44.23333008 52.58323242 -44.83203125 51.57421875 C-45.36727417 50.67255981 -45.36727417 50.67255981 -45.91333008 49.75268555 C-46.78080607 47.32708044 -46.47477918 46.34596085 -45.5625 43.9375 C-44.51781984 41.91529262 -43.41615042 39.92220642 -42.28125 37.94921875 C-41.94887329 37.36896439 -41.61649658 36.78871002 -41.27404785 36.19087219 C-40.56679763 34.95822226 -39.85722555 33.72690202 -39.14550781 32.49682617 C-37.74142398 30.07006541 -36.34847528 27.63700084 -34.95716858 25.20289612 C-34.25275506 23.98554216 -33.53727923 22.77452682 -32.81126404 21.56993103 C-30.87862714 18.34849508 -29.19856732 15.17488002 -27.74633789 11.70727539 C-21.7776815 -1.63083755 -13.49759415 -0.93774249 0 0 Z " fill="#187AB0" transform="translate(249.5625,160.0625)"/>
<path d="M0 0 C13.2 0 26.4 0 40 0 C46.8125 11.8125 46.8125 11.8125 49.02929688 15.70263672 C52.10287273 21.08939023 55.21124006 26.40850124 58.65625 31.5703125 C66.28341042 43.17898228 66.28341042 43.17898228 65.4765625 48.36328125 C63.91833624 51.2859442 62.19009912 53.52591946 60 56 C59.17295847 57.37516876 58.3750485 58.76886895 57.625 60.1875 C57.08875 61.115625 56.5525 62.04375 56 63 C54.68 62.67 53.36 62.34 52 62 C52.66128906 60.96359375 53.32257813 59.9271875 54.00390625 58.859375 C54.85742609 57.48999153 55.71025487 56.12017716 56.5625 54.75 C57.00013672 54.06808594 57.43777344 53.38617188 57.88867188 52.68359375 C58.29794922 52.01972656 58.70722656 51.35585937 59.12890625 50.671875 C59.51119385 50.0644043 59.89348145 49.45693359 60.28735352 48.83105469 C61.23785331 46.3888661 60.93007447 45.44471942 60 43 C58.99095647 40.99391905 57.92767872 39.01481154 56.83203125 37.0546875 C56.51473557 36.48477081 56.19743988 35.91485413 55.87052917 35.32766724 C55.19769388 34.1211933 54.52261788 32.91596661 53.84545898 31.71191406 C52.49665128 29.31332527 51.15904029 26.90857045 49.82269287 24.50302124 C49.16218039 23.32900517 48.49093822 22.16096164 47.80914307 20.99917603 C46.26029248 18.35223578 44.93532886 15.82471603 43.87207031 12.94287109 C42.57822171 9.77265951 41.70612234 8.12834646 39 6 C32.59085817 4.22156056 25.70716841 4.73990949 19.125 4.875 C17.27343669 4.87694288 15.42186283 4.87438688 13.5703125 4.8671875 C9.04509448 4.85937728 4.52435122 4.91315173 0 5 C0 3.35 0 1.7 0 0 Z " fill="#177AAF" transform="translate(106,161)"/>
<path d="M0 0 C2.97 0 5.94 0 9 0 C12.38082075 3.38082075 12.38082075 3.38082075 12.3984375 7.34375 C12.40230469 8.17777344 12.40617188 9.01179687 12.41015625 9.87109375 C12.39855469 10.73863281 12.38695312 11.60617188 12.375 12.5 C12.38660156 13.36753906 12.39820313 14.23507813 12.41015625 15.12890625 C12.40628906 15.96292969 12.40242187 16.79695313 12.3984375 17.65625 C12.39505371 18.41744141 12.39166992 19.17863281 12.38818359 19.96289062 C12 22 12 22 9 25 C6.03 25 3.06 25 0 25 C0 16.75 0 8.5 0 0 Z " fill="#25546D" transform="translate(199,236)"/>
<path d="M0 0 C2.171875 1.6484375 2.171875 1.6484375 4 4 C4.171875 6.8828125 4.171875 6.8828125 3.75 10.125 C3.11361002 15.81394073 2.91460527 21.27855297 3 27 C-0.96 27 -4.92 27 -9 27 C-8.91621094 25.92621094 -8.83242187 24.85242188 -8.74609375 23.74609375 C-8.6428397 22.30992378 -8.53999706 20.87372419 -8.4375 19.4375 C-8.38142578 18.73302734 -8.32535156 18.02855469 -8.26757812 17.30273438 C-8.0202452 13.72465135 -8.04335288 10.70744182 -8.57421875 7.125 C-9 4 -9 4 -7.375 1.5625 C-4.54002606 -0.30261443 -3.32374383 -0.66474877 0 0 Z " fill="#0C405C" transform="translate(190,147)"/>
<path d="M0 0 C3.3 0 6.6 0 10 0 C12 2 12 2 12.22705078 4.33837891 C12.21134033 5.76802979 12.21134033 5.76802979 12.1953125 7.2265625 C12.18564453 8.7734375 12.18564453 8.7734375 12.17578125 10.3515625 C12.15902344 11.43179688 12.14226562 12.51203125 12.125 13.625 C12.11597656 14.71296875 12.10695312 15.8009375 12.09765625 16.921875 C12.07403409 19.61480152 12.04109556 22.30729255 12 25 C10.35 25 8.7 25 7 25 C7 21.37 7 17.74 7 14 C6.34 14 5.68 14 5 14 C5 17.63 5 21.26 5 25 C3.35 25 1.7 25 0 25 C0 16.75 0 8.5 0 0 Z " fill="#194A64" transform="translate(125,236)"/>
<path d="M0 0 C2.97 0 5.94 0 9 0 C12 3 12 3 12.34057617 5.36010742 C12.3170105 6.71906128 12.3170105 6.71906128 12.29296875 8.10546875 C12.28330078 9.08837891 12.27363281 10.07128906 12.26367188 11.08398438 C12.23853516 12.10814453 12.21339844 13.13230469 12.1875 14.1875 C12.17396484 15.22326172 12.16042969 16.25902344 12.14648438 17.32617188 C12.11111389 19.88463699 12.06175544 22.4420578 12 25 C10.35 25 8.7 25 7 25 C7 21.37 7 17.74 7 14 C6.34 14 5.68 14 5 14 C5 17.63 5 21.26 5 25 C3.35 25 1.7 25 0 25 C0 16.75 0 8.5 0 0 Z " fill="#144762" transform="translate(225,236)"/>
<path d="M0 0 C2.97 0 5.94 0 9 0 C12 3 12 3 12.1875 6.4375 C12.125625 7.613125 12.06375 8.78875 12 10 C12 11.32 12 12.64 12 14 C12 17.66666667 12 21.33333333 12 25 C10.35 25 8.7 25 7 25 C7 21.37 7 17.74 7 14 C6.34 14 5.68 14 5 14 C5 17.63 5 21.26 5 25 C3.35 25 1.7 25 0 25 C0 16.75 0 8.5 0 0 Z " fill="#164863" transform="translate(179,236)"/>
<path d="M0 0 C1.65 0 3.3 0 5 0 C4.74863281 1.2684375 4.74863281 1.2684375 4.4921875 2.5625 C3.25008934 9.48051506 2.81617384 14.32719783 5 21 C5 22.32 5 23.64 5 25 C3.35 25 1.7 25 0 25 C-0.33 24.34 -0.66 23.68 -1 23 C-1.33 23.66 -1.66 24.32 -2 25 C-3.65 25 -5.3 25 -7 25 C-7 17.08 -7 9.16 -7 1 C-5.68 1 -4.36 1 -3 1 C-2.67 2.98 -2.34 4.96 -2 7 C-1.34 4.69 -0.68 2.38 0 0 Z " fill="#124560" transform="translate(166,236)"/>
<path d="M0 0 C1.875 1.25 1.875 1.25 3 3 C3 4.32 3 5.64 3 7 C1.35 7 -0.3 7 -2 7 C-2 6.34 -2 5.68 -2 5 C-2.66 5 -3.32 5 -4 5 C-2.47618961 7.7428587 -1.24638793 9.79585 1.1875 11.8125 C3.2031505 14.24518164 3.32604974 15.00876284 3.4375 18.0625 C3 22 3 22 1.875 24 C-0.93163039 25.49686954 -2.87757843 25.45535315 -6 25 C-8.467339 22.7793949 -8.96152446 21.56430797 -9.1875 18.25 C-9.125625 17.5075 -9.06375 16.765 -9 16 C-7.35 16 -5.7 16 -4 16 C-4 17.65 -4 19.3 -4 21 C-3.34 21 -2.68 21 -2 21 C-3.00421436 17.16572699 -3.98059003 15.02218283 -6.625 12 C-9 9 -9 9 -9.5 5.8125 C-9 3 -9 3 -7.875 1.125 C-5.11909116 -0.52854531 -3.14924548 -0.39365568 0 0 Z " fill="#0E425D" transform="translate(247,236)"/>
<path d="M0 0 C1.875 1.25 1.875 1.25 3 3 C3 4.32 3 5.64 3 7 C1.35 7 -0.3 7 -2 7 C-2 6.34 -2 5.68 -2 5 C-2.66 5 -3.32 5 -4 5 C-2.47618961 7.7428587 -1.24638793 9.79585 1.1875 11.8125 C3.2031505 14.24518164 3.32604974 15.00876284 3.4375 18.0625 C3 22 3 22 1.875 24 C-0.93163039 25.49686954 -2.87757843 25.45535315 -6 25 C-8.467339 22.7793949 -8.96152446 21.56430797 -9.1875 18.25 C-9.125625 17.5075 -9.06375 16.765 -9 16 C-7.35 16 -5.7 16 -4 16 C-4 17.65 -4 19.3 -4 21 C-3.34 21 -2.68 21 -2 21 C-3.00421436 17.16572699 -3.98059003 15.02218283 -6.625 12 C-9 9 -9 9 -9.5 5.8125 C-9 3 -9 3 -7.875 1.125 C-5.11909116 -0.52854531 -3.14924548 -0.39365568 0 0 Z " fill="#0E425D" transform="translate(154,236)"/>
<path d="M0 0 C3.3 0 6.6 0 10 0 C10 1.65 10 3.3 10 5 C8.35 5 6.7 5 5 5 C5 6.65 5 8.3 5 10 C6.65 10 8.3 10 10 10 C10 11.65 10 13.3 10 15 C8.35 15 6.7 15 5 15 C5 16.65 5 18.3 5 20 C6.65 20 8.3 20 10 20 C10 21.65 10 23.3 10 25 C6.7 25 3.4 25 0 25 C0 16.75 0 8.5 0 0 Z " fill="#0F425E" transform="translate(213,236)"/>
<path d="M0 0 C1.65 0 3.3 0 5 0 C5 8.25 5 16.5 5 25 C3.35 25 1.7 25 0 25 C0 16.75 0 8.5 0 0 Z " fill="#164963" transform="translate(192,236)"/>
<path d="M0 0 C1.65 0 3.3 0 5 0 C5 8.25 5 16.5 5 25 C3.35 25 1.7 25 0 25 C0 16.75 0 8.5 0 0 Z " fill="#184A64" transform="translate(139,236)"/>
<path d="M0 0 C1.98 0 3.96 0 6 0 C6.625 3.375 6.625 3.375 7 7 C6.34 7.66 5.68 8.32 5 9 C5 6.36 5 3.72 5 1 C3.68 1 2.36 1 1 1 C1 8.92 1 16.84 1 25 C-1 21 -1 21 -1.25 17.625 C-2.13424242 13.35116162 -3.48185875 12.0740195 -6.72265625 9.359375 C-8 8 -8 8 -8 5 C-7.34 5 -6.68 5 -6 5 C-6 5.66 -6 6.32 -6 7 C-4.02 7 -2.04 7 0 7 C0 4.69 0 2.38 0 0 Z " fill="#BDCBD3" transform="translate(158,236)"/>
<path d="M0 0 C2.45381594 0.37027138 3.67106309 0.60162503 5.28027344 2.55053711 C5.63637695 3.2028833 5.99248047 3.85522949 6.359375 4.52734375 C6.75253906 5.23697266 7.14570313 5.94660156 7.55078125 6.67773438 C8.14439453 7.79631836 8.14439453 7.79631836 8.75 8.9375 C9.16121094 9.67935547 9.57242188 10.42121094 9.99609375 11.18554688 C13 16.68938175 13 16.68938175 13 19 C10.6291845 18.62194429 9.34061982 18.38387932 7.71972656 16.55712891 C7.36362305 15.95304199 7.00751953 15.34895508 6.640625 14.7265625 C6.24746094 14.0665625 5.85429687 13.4065625 5.44921875 12.7265625 C5.05347656 12.03304687 4.65773437 11.33953125 4.25 10.625 C3.83878906 9.93921875 3.42757812 9.2534375 3.00390625 8.546875 C0 3.41728094 0 3.41728094 0 0 Z " fill="#1A7CB1" transform="translate(203,205)"/>
<path d="M0 0 C0.33 0 0.66 0 1 0 C1.08636719 0.59167969 1.17273438 1.18335938 1.26171875 1.79296875 C2.28113683 7.52602639 3.70125482 9.92750457 8 14 C8.3125 16.8125 8.3125 16.8125 8 19 C7.34 19 6.68 19 6 19 C6 17.35 6 15.7 6 14 C5.195625 14.020625 4.39125 14.04125 3.5625 14.0625 C1 14 1 14 0 13 C-0.07258946 10.81360547 -0.08373783 8.62499611 -0.0625 6.4375 C-0.05347656 5.23996094 -0.04445312 4.04242188 -0.03515625 2.80859375 C-0.02355469 1.88175781 -0.01195312 0.95492187 0 0 Z " fill="#EFF3F4" transform="translate(144,238)"/>
<path d="M0 0 C0.66 0.99 1.32 1.98 2 3 C3.03480472 4.131315 4.07688859 5.25600183 5.125 6.375 C7.26779727 8.82465416 7.95250799 9.62797926 8.375 12.9375 C8.25125 13.618125 8.1275 14.29875 8 15 C7.34 15 6.68 15 6 15 C6 13.35 6 11.7 6 10 C4.35 10 2.7 10 1 10 C-0.83691257 6.21812119 -1.15837626 4.05431692 0 0 Z " fill="#EDF1F3" transform="translate(237,242)"/>
</svg>
